# xmcd CD database file
#
# Track frame offsets:
#	182
#	12797
#	27920
#	42680
#	55785
#	68235
#	82345
#	96077
#	111077
#	124015
#
# Disc length: 1849 seconds
#
# Revision: 2
# Processed by: cddbd v1.4PL0 Copyright (c) Steve Scherf et al.
# Submitted via: CDex 1.40Release
#
DISCID=8407370a
DTITLE=Sawyer Brown - Greatest Hits
DYEAR=1990
DGENRE=Country
TTITLE0=Step That Step
TTITLE1=Heart Don't Fall Now
TTITLE2=Betty's Bein' Bad
TTITLE3=The Race Is On
TTITLE4=When Love Comes Callin'
TTITLE5=Puttin' The Dark Back Into The Night
TTITLE6=Leona
TTITLE7=Used To Blue
TTITLE8=Out Goin' Cattin'
TTITLE9=Shakin'
EXTD=YEAR: 1990 ID3G: 2
EXTT0=
EXTT1=
EXTT2=
EXTT3=
EXTT4=
EXTT5=
EXTT6=
EXTT7=
EXTT8=
EXTT9=
PLAYORDER=
